<svg width="40" height="40" viewBox="0 0 40 40" fill="none" xmlns="http://www.w3.org/2000/svg">
  <circle cx="20" cy="20" r="18.5" fill="#0EA5E9"/>
  <path fill="#F8FDFF" fill-opacity="0.96" transform="translate(4 4) scale(1.3333333)" d="M18.85 6.55c-1.2 3.45-4.15 5.6-7.4 5.2-2.45-.3-4.2.75-4.95 2.45-.62 1.43-.33 3.07.63 4.17A8.38 8.38 0 0 0 20.36 12c0-2.05-.73-3.93-1.95-5.39.15-.02.3-.04.44-.06ZM12.2 13.2c1.95 0 3.4 1.26 3.4 3.02 0 1.72-1.42 3.05-3.32 3.05-2.56 0-4.74-1.74-4.74-4.03 0-1.65 1.16-2.88 3.05-2.88.7 0 1.22.13 1.61.84Zm-.4 1.85c-.63 0-1.15.45-1.15 1.06 0 .75.75 1.27 1.62 1.27.76 0 1.23-.44 1.23-1.05 0-.75-.76-1.28-1.7-1.28ZM5.32 6.96A8.33 8.33 0 0 0 3.64 12c0 1.18.24 2.3.69 3.32.2-1.92 1.03-3.96 2.64-5.73 1.54-1.68 3.28-2.39 4.64-2.33 1.24.06 1.77.82 1.5 1.55-.24.65-1.08 1.13-2.55 1.04-2.14-.14-3.9.97-5.24 3.26-1.02-2.08-1.06-4.39 0-6.15Z"/>
</svg>
